<svg width="1000" height="1000" viewBox="0 0 1000 1000" fill="none" xmlns="http://www.w3.org/2000/svg">
<rect width="1000" height="1000" fill="#BF0000"/>
<path d="M135.4 666.832V750.8H417V830.16H135.4V914.64H71.912L71.912 666.832H135.4Z" fill="white"/>
<path d="M890.224 211.312V151.408H618.352V213.36C618.352 256.027 631.493 288.283 657.776 310.128C684.4 331.973 716.997 342.896 755.568 342.896C794.139 342.896 826.224 330.608 851.824 306.032C877.424 281.797 890.224 250.224 890.224 211.312ZM582 213.872V109.424L927.088 109.424V211.824C927.088 262.683 911.216 304.325 879.472 336.752C848.069 369.52 807.28 385.904 757.104 385.904C707.269 385.904 665.627 370.715 632.176 340.336C598.725 310.299 582 268.144 582 213.872Z" fill="white"/>
<path d="M863.064 201.504V166.176H647.512V202.016C647.512 233.76 657.411 258.165 677.208 275.232C697.005 292.64 723.629 301.344 757.08 301.344C790.531 301.344 816.472 292.64 834.904 275.232C853.677 257.824 863.064 233.248 863.064 201.504ZM583 203.04V85.28L928.088 85.28V204.064C928.088 255.947 912.045 298.443 879.96 331.552C848.216 364.661 808.621 381.216 761.176 381.216C705.88 381.216 662.36 364.832 630.616 332.064C598.872 299.637 583 256.629 583 203.04Z" fill="white"/>
<path d="M678.632 809.512C697.405 824.531 723.005 832.04 755.432 832.04C787.859 832.04 813.629 824.531 832.744 809.512C851.517 794.493 860.904 774.184 860.904 748.584C860.904 722.984 851.517 702.675 832.744 687.656C813.629 672.637 787.859 665.128 755.432 665.128C723.005 665.128 697.405 672.637 678.632 687.656C659.517 702.675 649.96 722.984 649.96 748.584C649.96 774.184 659.517 794.493 678.632 809.512ZM578.28 748.584C578.28 697.384 594.493 656.595 626.92 626.216C659.347 595.837 702.184 580.648 755.432 580.648C808.339 580.648 851.176 596.008 883.944 626.728C916.371 657.107 932.584 697.896 932.584 749.096C932.584 799.955 916.371 840.573 883.944 870.952C851.517 901.331 808.851 916.52 755.944 916.52C702.696 916.52 659.859 901.331 627.432 870.952C594.664 840.232 578.28 799.443 578.28 748.584Z" fill="white"/>
<path d="M166.632 301.512C185.405 316.531 211.005 324.04 243.432 324.04C275.859 324.04 301.629 316.531 320.744 301.512C339.517 286.493 348.904 266.184 348.904 240.584C348.904 214.984 339.517 194.675 320.744 179.656C301.629 164.637 275.859 157.128 243.432 157.128C211.005 157.128 185.405 164.637 166.632 179.656C147.517 194.675 137.96 214.984 137.96 240.584C137.96 266.184 147.517 286.493 166.632 301.512ZM66.28 240.584C66.28 189.384 82.4933 148.595 114.92 118.216C147.347 87.8373 190.184 72.648 243.432 72.648C296.339 72.648 339.176 88.008 371.944 118.728C404.371 149.107 420.584 189.896 420.584 241.096C420.584 291.955 404.371 332.573 371.944 362.952C339.517 393.331 296.851 408.52 243.944 408.52C190.696 408.52 147.859 393.331 115.432 362.952C82.664 332.232 66.28 291.443 66.28 240.584Z" fill="white"/>
</svg>
